<svg data-v-fde0c5aa="" xmlns="http://www.w3.org/2000/svg" viewBox="0 0 300 300" class="iconLeft"><!----><defs data-v-fde0c5aa=""><!----></defs><rect data-v-fde0c5aa="" fill="#FFFFFF" x="0" y="0" width="300px" height="300px" class="logo-background-square"></rect><defs data-v-fde0c5aa=""><!----></defs><g data-v-fde0c5aa="" id="aad3be66-fc99-4a4f-98eb-d88a95193517" fill="#000000" transform="matrix(2.171518692723852,0,0,2.171518692723852,91.7073085621271,131.2055052588723)"><path d="M5.46 3.75L5.46 3.75Q6.79 3.75 7.77 4.19L7.77 4.19L7.77 4.19Q8.75 4.63 9.28 5.45L9.28 5.45L9.28 5.45Q9.81 6.27 9.81 7.38L9.81 7.38L9.81 7.38Q9.81 8.48 9.28 9.30L9.28 9.30L9.28 9.30Q8.75 10.11 7.77 10.55L7.77 10.55L7.77 10.55Q6.79 10.99 5.46 10.99L5.46 10.99L3.75 10.99L3.75 13.55L0.98 13.55L0.98 3.75L5.46 3.75ZM5.29 8.81L5.29 8.81Q6.15 8.81 6.58 8.43L6.58 8.43L6.58 8.43Q7.01 8.06 7.01 7.38L7.01 7.38L7.01 7.38Q7.01 6.69 6.58 6.31L6.58 6.31L6.58 6.31Q6.15 5.94 5.29 5.94L5.29 5.94L3.75 5.94L3.75 8.81L5.29 8.81ZM17.36 13.55L15.58 10.95L14.07 10.95L14.07 13.55L11.30 13.55L11.30 3.75L15.78 3.75L15.78 3.75Q17.11 3.75 18.09 4.19L18.09 4.19L18.09 4.19Q19.07 4.63 19.60 5.45L19.60 5.45L19.60 5.45Q20.13 6.27 20.13 7.38L20.13 7.38L20.13 7.38Q20.13 8.44 19.63 9.23L19.63 9.23L19.63 9.23Q19.14 10.02 18.21 10.47L18.21 10.47L20.33 13.55L17.36 13.55ZM17.33 7.38L17.33 7.38Q17.33 6.69 16.90 6.31L16.90 6.31L16.90 6.31Q16.46 5.94 15.61 5.94L15.61 5.94L14.07 5.94L14.07 8.81L15.61 8.81L15.61 8.81Q16.46 8.81 16.90 8.43L16.90 8.43L16.90 8.43Q17.33 8.06 17.33 7.38L17.33 7.38ZM26.60 13.75L26.60 13.75Q25.05 13.75 23.81 13.09L23.81 13.09L23.81 13.09Q22.57 12.43 21.86 11.27L21.86 11.27L21.86 11.27Q21.15 10.11 21.15 8.65L21.15 8.65L21.15 8.65Q21.15 7.20 21.86 6.03L21.86 6.03L21.86 6.03Q22.57 4.87 23.81 4.21L23.81 4.21L23.81 4.21Q25.05 3.56 26.60 3.56L26.60 3.56L26.60 3.56Q28.15 3.56 29.39 4.21L29.39 4.21L29.39 4.21Q30.63 4.87 31.34 6.03L31.34 6.03L31.34 6.03Q32.05 7.20 32.05 8.65L32.05 8.65L32.05 8.65Q32.05 10.11 31.34 11.27L31.34 11.27L31.34 11.27Q30.63 12.43 29.39 13.09L29.39 13.09L29.39 13.09Q28.15 13.75 26.60 13.75L26.60 13.75ZM26.60 11.45L26.60 11.45Q27.34 11.45 27.94 11.10L27.94 11.10L27.94 11.10Q28.55 10.75 28.90 10.11L28.90 10.11L28.90 10.11Q29.25 9.48 29.25 8.65L29.25 8.65L29.25 8.65Q29.25 7.83 28.90 7.19L28.90 7.19L28.90 7.19Q28.55 6.55 27.94 6.20L27.94 6.20L27.94 6.20Q27.34 5.85 26.60 5.85L26.60 5.85L26.60 5.85Q25.86 5.85 25.26 6.20L25.26 6.20L25.26 6.20Q24.65 6.55 24.30 7.19L24.30 7.19L24.30 7.19Q23.95 7.83 23.95 8.65L23.95 8.65L23.95 8.65Q23.95 9.48 24.30 10.11L24.30 10.11L24.30 10.11Q24.65 10.75 25.26 11.10L25.26 11.10L25.26 11.10Q25.86 11.45 26.60 11.45L26.60 11.45ZM37.98 3.75L37.98 3.75Q39.31 3.75 40.29 4.19L40.29 4.19L40.29 4.19Q41.27 4.63 41.80 5.45L41.80 5.45L41.80 5.45Q42.34 6.27 42.34 7.38L42.34 7.38L42.34 7.38Q42.34 8.48 41.80 9.30L41.80 9.30L41.80 9.30Q41.27 10.11 40.29 10.55L40.29 10.55L40.29 10.55Q39.31 10.99 37.98 10.99L37.98 10.99L36.27 10.99L36.27 13.55L33.50 13.55L33.50 3.75L37.98 3.75ZM37.81 8.81L37.81 8.81Q38.67 8.81 39.10 8.43L39.10 8.43L39.10 8.43Q39.54 8.06 39.54 7.38L39.54 7.38L39.54 7.38Q39.54 6.69 39.10 6.31L39.10 6.31L39.10 6.31Q38.67 5.94 37.81 5.94L37.81 5.94L36.27 5.94L36.27 8.81L37.81 8.81ZM55.22 13.55L52.67 13.55L52.64 8.36L50.12 12.59L48.89 12.59L46.38 8.50L46.38 13.55L43.82 13.55L43.82 3.75L46.10 3.75L49.55 9.41L52.91 3.75L55.19 3.75L55.22 13.55ZM64.51 13.55L63.74 11.65L59.60 11.65L58.83 13.55L56 13.55L60.33 3.75L63.06 3.75L67.40 13.55L64.51 13.55ZM60.41 9.60L62.93 9.60L61.67 6.47L60.41 9.60ZM74.79 3.75L77.50 3.75L77.50 13.55L75.22 13.55L70.90 8.33L70.90 13.55L68.18 13.55L68.18 3.75L70.46 3.75L74.79 8.97L74.79 3.75Z"></path></g><defs data-v-fde0c5aa=""><!----></defs><g data-v-fde0c5aa="" id="04dac5d2-177c-494e-9ac5-1cb280555096" stroke="none" fill="#410FF8" transform="matrix(0.6380530769127329,0,0,0.6380530769127329,39.36194692308727,128.94431965577516)"><path d="M64.22 38.86h-49a.78.78 0 0 0-.78.78v18.59a.78.78 0 0 0 .78.78h49a.78.78 0 0 0 .78-.78V39.64a.78.78 0 0 0-.78-.78zM36.39 56.07a1 1 0 0 1-1 .8H23.06a1 1 0 0 1-1-1 3.34 3.34 0 0 0-3.33-3.33 1 1 0 0 1-1-1v-5.15a1 1 0 0 1 1-1A3.34 3.34 0 0 0 22 42a1 1 0 0 1 1-1h12.39a1 1 0 0 1 .44 2 6.6 6.6 0 0 0 0 11.94 1 1 0 0 1 .56 1.13zm4.34-1v.29a1 1 0 1 1-2.06 0v-.29a3.71 3.71 0 0 1-2.17-1.72 1 1 0 0 1 .4-1.41 1 1 0 0 1 1.4.4 1.72 1.72 0 0 0 .37.43v-3a3.6 3.6 0 0 1-1.67-5.9 3.57 3.57 0 0 1 1.69-1v-.31a1 1 0 1 1 2.06 0v.29a3.66 3.66 0 0 1 2.17 1.73 1 1 0 0 1-1.81 1 1.56 1.56 0 0 0-.36-.41v3a3.61 3.61 0 0 1 1.82 1.2 3.64 3.64 0 0 1-1.82 5.8zm21-3.59a1 1 0 0 1-1 1 3.33 3.33 0 0 0-3.32 3.33 1 1 0 0 1-1 1H44a1 1 0 0 1-.45-2 6.6 6.6 0 0 0 0-11.94A1 1 0 0 1 44 41h12.34a1 1 0 0 1 1 1 3.33 3.33 0 0 0 3.32 3.33 1 1 0 0 1 1 1z"></path><circle cx="29.16" cy="27.56" r="3.44"></circle><path d="M38.11 46.49a1.54 1.54 0 0 0 .56 1v-2.38l-.16.13a1.6 1.6 0 0 0-.4 1.25zM55.41 43.07h-8.29a8.64 8.64 0 0 1 0 11.74h8.29a5.4 5.4 0 0 1 4.26-4.26v-3.22a5.42 5.42 0 0 1-4.26-4.26zM54.31 50h-1.64a1 1 0 1 1 0-2.07h1.64a1 1 0 1 1 0 2.07zM15.18 36.8h35.47v-8.45l-14-10.07-7.52-5.42-13.46 9.72-8 5.77V59h4.8a2.89 2.89 0 0 1-.12-.78V39.64a2.84 2.84 0 0 1 2.83-2.84zm14-14.75a5.51 5.51 0 1 1-5.51 5.51 5.51 5.51 0 0 1 5.49-5.51zM1 58a1 1 0 0 0 1 1h3.6v-2H2a1 1 0 0 0-1 1z"></path><path d="M32.28 43.07H24a5.42 5.42 0 0 1-4.26 4.26v3.22A5.4 5.4 0 0 1 24 54.81h8.29a8.64 8.64 0 0 1 0-11.74zM26.73 50h-1.64a1 1 0 1 1 0-2.07h1.64a1 1 0 1 1 0 2.07zM16.26 13.17V6.99H9.24v11.24l4.22-3.05 2.8-2.01zM40.73 50.35v2.42a1.55 1.55 0 0 0 .21-2.2 1.45 1.45 0 0 0-.21-.22zM29.76 10.75L52.3 27l3 2.13v-3.9L30.63 7.47a2.49 2.49 0 0 0-2.94 0l-14 10.09-4.88 3.53-5.74 4.14v3.89L6 27l22.55-16.25a1 1 0 0 1 1.21 0z"></path></g><!----></svg>