<svg data-v-423bf9ae="" xmlns="http://www.w3.org/2000/svg" viewBox="0 0 450.55932855341933 60" class="font"><!----><!----><!----><g data-v-423bf9ae="" id="7853306f-8010-4396-8bc8-d15107fbb3cd" fill="white" transform="matrix(5.888125304749934,0,0,5.888125304749934,-5.770355995502484,-20.96172622482569)"><path d="M5.46 3.75L5.46 3.75Q6.79 3.75 7.77 4.19L7.77 4.19L7.77 4.19Q8.75 4.63 9.28 5.45L9.28 5.45L9.28 5.45Q9.81 6.27 9.81 7.38L9.81 7.38L9.81 7.38Q9.81 8.48 9.28 9.30L9.28 9.30L9.28 9.30Q8.75 10.11 7.77 10.55L7.77 10.55L7.77 10.55Q6.79 10.99 5.46 10.99L5.46 10.99L3.75 10.99L3.75 13.55L0.98 13.55L0.98 3.75L5.46 3.75ZM5.29 8.81L5.29 8.81Q6.15 8.81 6.58 8.43L6.58 8.43L6.58 8.43Q7.01 8.06 7.01 7.38L7.01 7.38L7.01 7.38Q7.01 6.69 6.58 6.31L6.58 6.31L6.58 6.31Q6.15 5.94 5.29 5.94L5.29 5.94L3.75 5.94L3.75 8.81L5.29 8.81ZM17.36 13.55L15.58 10.95L14.07 10.95L14.07 13.55L11.30 13.55L11.30 3.75L15.78 3.75L15.78 3.75Q17.11 3.75 18.09 4.19L18.09 4.19L18.09 4.19Q19.07 4.63 19.60 5.45L19.60 5.45L19.60 5.45Q20.13 6.27 20.13 7.38L20.13 7.38L20.13 7.38Q20.13 8.44 19.63 9.23L19.63 9.23L19.63 9.23Q19.14 10.02 18.21 10.47L18.21 10.47L20.33 13.55L17.36 13.55ZM17.33 7.38L17.33 7.38Q17.33 6.69 16.90 6.31L16.90 6.31L16.90 6.31Q16.46 5.94 15.61 5.94L15.61 5.94L14.07 5.94L14.07 8.81L15.61 8.81L15.61 8.81Q16.46 8.81 16.90 8.43L16.90 8.43L16.90 8.43Q17.33 8.06 17.33 7.38L17.33 7.38ZM26.60 13.75L26.60 13.75Q25.05 13.75 23.81 13.09L23.81 13.09L23.81 13.09Q22.57 12.43 21.86 11.27L21.86 11.27L21.86 11.27Q21.15 10.11 21.15 8.65L21.15 8.65L21.15 8.65Q21.15 7.20 21.86 6.03L21.86 6.03L21.86 6.03Q22.57 4.87 23.81 4.21L23.81 4.21L23.81 4.21Q25.05 3.56 26.60 3.56L26.60 3.56L26.60 3.56Q28.15 3.56 29.39 4.21L29.39 4.21L29.39 4.21Q30.63 4.87 31.34 6.03L31.34 6.03L31.34 6.03Q32.05 7.20 32.05 8.65L32.05 8.65L32.05 8.65Q32.05 10.11 31.34 11.27L31.34 11.27L31.34 11.27Q30.63 12.43 29.39 13.09L29.39 13.09L29.39 13.09Q28.15 13.75 26.60 13.75L26.60 13.75ZM26.60 11.45L26.60 11.45Q27.34 11.45 27.94 11.10L27.94 11.10L27.94 11.10Q28.55 10.75 28.90 10.11L28.90 10.11L28.90 10.11Q29.25 9.48 29.25 8.65L29.25 8.65L29.25 8.65Q29.25 7.83 28.90 7.19L28.90 7.19L28.90 7.19Q28.55 6.55 27.94 6.20L27.94 6.20L27.94 6.20Q27.34 5.85 26.60 5.85L26.60 5.85L26.60 5.85Q25.86 5.85 25.26 6.20L25.26 6.20L25.26 6.20Q24.65 6.55 24.30 7.19L24.30 7.19L24.30 7.19Q23.95 7.83 23.95 8.65L23.95 8.65L23.95 8.65Q23.95 9.48 24.30 10.11L24.30 10.11L24.30 10.11Q24.65 10.75 25.26 11.10L25.26 11.10L25.26 11.10Q25.86 11.45 26.60 11.45L26.60 11.45ZM37.98 3.75L37.98 3.75Q39.31 3.75 40.29 4.19L40.29 4.19L40.29 4.19Q41.27 4.63 41.80 5.45L41.80 5.45L41.80 5.45Q42.34 6.27 42.34 7.38L42.34 7.38L42.34 7.38Q42.34 8.48 41.80 9.30L41.80 9.30L41.80 9.30Q41.27 10.11 40.29 10.55L40.29 10.55L40.29 10.55Q39.31 10.99 37.98 10.99L37.98 10.99L36.27 10.99L36.27 13.55L33.50 13.55L33.50 3.75L37.98 3.75ZM37.81 8.81L37.81 8.81Q38.67 8.81 39.10 8.43L39.10 8.43L39.10 8.43Q39.54 8.06 39.54 7.38L39.54 7.38L39.54 7.38Q39.54 6.69 39.10 6.31L39.10 6.31L39.10 6.31Q38.67 5.94 37.81 5.94L37.81 5.94L36.27 5.94L36.27 8.81L37.81 8.81ZM55.22 13.55L52.67 13.55L52.64 8.36L50.12 12.59L48.89 12.59L46.38 8.50L46.38 13.55L43.82 13.55L43.82 3.75L46.10 3.75L49.55 9.41L52.91 3.75L55.19 3.75L55.22 13.55ZM64.51 13.55L63.74 11.65L59.60 11.65L58.83 13.55L56 13.55L60.33 3.75L63.06 3.75L67.40 13.55L64.51 13.55ZM60.41 9.60L62.93 9.60L61.67 6.47L60.41 9.60ZM74.79 3.75L77.50 3.75L77.50 13.55L75.22 13.55L70.90 8.33L70.90 13.55L68.18 13.55L68.18 3.75L70.46 3.75L74.79 8.97L74.79 3.75Z"></path></g><!----><!----></svg>