<svg data-v-423bf9ae="" xmlns="http://www.w3.org/2000/svg" viewBox="0 0 1005 90" class="iconLeft"><!----><!----><!----><g data-v-423bf9ae="" id="fc2a9870-cf1a-4bb1-8170-68222b59f6d3" fill="#000000" transform="matrix(5.84225874640956,0,0,5.84225874640956,96.63193484360892,-4.221030099148649)"><path d="M2.61 13.33L1.57 13.33L1.57 13.33Q1.09 13.33 1.09 12.82L1.09 12.82L1.09 4.04L1.09 4.04Q1.09 3.53 1.57 3.53L1.57 3.53L4.13 3.53L4.13 3.53Q6.59 3.53 7.54 4.33L7.54 4.33L7.54 4.33Q8.50 5.13 8.50 6.60L8.50 6.60L8.50 6.60Q8.50 8.07 7.54 8.87L7.54 8.87L7.54 8.87Q6.59 9.67 4.13 9.67L4.13 9.67L3.09 9.67L3.09 12.82L3.09 12.82Q3.09 13.33 2.61 13.33L2.61 13.33ZM3.09 5.20L3.09 8.00L4.12 8.00L4.12 8.00Q5.49 8.00 5.98 7.67L5.98 7.67L5.98 7.67Q6.47 7.35 6.47 6.60L6.47 6.60L6.47 6.60Q6.47 5.84 5.98 5.52L5.98 5.52L5.98 5.52Q5.49 5.20 4.12 5.20L4.12 5.20L3.09 5.20ZM11.69 13.33L10.65 13.33L10.65 13.33Q10.17 13.33 10.17 12.82L10.17 12.82L10.17 4.04L10.17 4.04Q10.17 3.53 10.65 3.53L10.65 3.53L13.82 3.53L13.82 3.53Q15.93 3.53 16.90 4.18L16.90 4.18L16.90 4.18Q17.87 4.83 17.87 6.30L17.87 6.30L17.87 6.30Q17.87 7.40 17.08 8.05L17.08 8.05L17.08 8.05Q16.30 8.70 15.09 8.91L15.09 8.91L15.09 8.92L15.09 8.92Q15.74 9.17 16.08 9.60L16.08 9.60L16.08 9.60Q16.41 10.04 16.63 10.37L16.63 10.37L18.13 12.74L18.13 12.74Q18.50 13.33 17.87 13.33L17.87 13.33L16.68 13.33L16.68 13.33Q16.30 13.33 16.06 12.93L16.06 12.93L14.68 10.62L14.68 10.62Q14.46 10.25 13.86 9.81L13.86 9.81L13.86 9.81Q13.26 9.37 12.67 9.37L12.67 9.37L12.17 9.37L12.17 12.82L12.17 12.82Q12.17 13.33 11.69 13.33L11.69 13.33ZM12.17 5.20L12.17 7.68L13.39 7.68L13.39 7.68Q14.76 7.68 15.34 7.37L15.34 7.37L15.34 7.37Q15.91 7.05 15.91 6.38L15.91 6.38L15.91 6.38Q15.91 5.64 15.36 5.42L15.36 5.42L15.36 5.42Q14.80 5.20 13.72 5.20L13.72 5.20L12.17 5.20ZM20.54 13.33L19.46 13.33L19.46 13.33Q18.96 13.33 19.13 12.88L19.13 12.88L22.48 4.08L22.48 4.08Q22.70 3.53 23.13 3.53L23.13 3.53L24.08 3.53L24.08 3.53Q24.51 3.53 24.73 4.08L24.73 4.08L28.08 12.88L28.08 12.88Q28.25 13.33 27.75 13.33L27.75 13.33L26.67 13.33L26.67 13.33Q26.22 13.33 26.04 12.86L26.04 12.86L25.34 11.02L21.87 11.02L21.17 12.86L21.17 12.86Q20.99 13.33 20.54 13.33L20.54 13.33ZM23.34 7.15L22.50 9.32L24.71 9.32L23.86 7.15L23.86 7.15Q23.71 6.77 23.68 6.59L23.68 6.59L23.68 6.59Q23.65 6.42 23.62 6.08L23.62 6.08L23.59 6.08L23.59 6.08Q23.56 6.42 23.53 6.59L23.53 6.59L23.53 6.59Q23.50 6.77 23.34 7.15L23.34 7.15ZM28.96 8.43L28.96 8.43L28.96 8.43Q28.96 6.07 30.19 4.68L30.19 4.68L30.19 4.68Q31.42 3.29 33.67 3.29L33.67 3.29L33.67 3.29Q35.03 3.29 35.81 3.64L35.81 3.64L35.81 3.64Q36.59 3.99 37.17 4.72L37.17 4.72L37.17 4.72Q37.53 5.17 37.15 5.41L37.15 5.41L36.37 5.92L36.37 5.92Q36.03 6.15 35.64 5.72L35.64 5.72L35.64 5.72Q35.32 5.37 34.83 5.14L34.83 5.14L34.83 5.14Q34.34 4.91 33.74 4.91L33.74 4.91L33.74 4.91Q32.31 4.91 31.70 5.81L31.70 5.81L31.70 5.81Q31.09 6.72 31.09 8.43L31.09 8.43L31.09 8.43Q31.09 10.14 31.70 11.04L31.70 11.04L31.70 11.04Q32.31 11.95 33.74 11.95L33.74 11.95L33.74 11.95Q34.44 11.95 34.95 11.81L34.95 11.81L34.95 11.81Q35.45 11.67 35.90 11.30L35.90 11.30L35.90 10.08L34.42 10.08L34.42 10.08Q33.91 10.08 33.91 9.63L33.91 9.63L33.91 8.83L33.91 8.83Q33.91 8.38 34.42 8.38L34.42 8.38L37.39 8.38L37.39 8.38Q37.90 8.38 37.90 8.83L37.90 8.83L37.90 12.30L37.90 12.30Q36.94 13.00 35.97 13.28L35.97 13.28L35.97 13.28Q34.99 13.56 33.67 13.56L33.67 13.56L33.67 13.56Q31.45 13.56 30.20 12.17L30.20 12.17L30.20 12.17Q28.96 10.79 28.96 8.43ZM41.28 13.33L40.24 13.33L40.24 13.33Q39.76 13.33 39.76 12.82L39.76 12.82L39.76 4.04L39.76 4.04Q39.76 3.53 40.24 3.53L40.24 3.53L42.22 3.53L42.22 3.53Q42.62 3.53 42.79 4.07L42.79 4.07L44.64 10.07L44.64 10.07Q44.76 10.46 44.81 10.71L44.81 10.71L44.81 10.71Q44.86 10.96 44.89 11.30L44.89 11.30L44.93 11.30L44.93 11.30Q44.97 10.96 45.01 10.71L45.01 10.71L45.01 10.71Q45.06 10.46 45.19 10.07L45.19 10.07L47.04 4.07L47.04 4.07Q47.21 3.53 47.61 3.53L47.61 3.53L49.59 3.53L49.59 3.53Q50.07 3.53 50.07 4.04L50.07 4.04L50.07 12.82L50.07 12.82Q50.07 13.33 49.59 13.33L49.59 13.33L48.55 13.33L48.55 13.33Q48.07 13.33 48.07 12.82L48.07 12.82L48.07 7.17L48.07 7.17Q48.07 6.76 48.10 6.35L48.10 6.35L48.06 6.35L46.08 12.78L46.08 12.78Q45.91 13.33 45.49 13.33L45.49 13.33L44.33 13.33L44.33 13.33Q43.91 13.33 43.74 12.78L43.74 12.78L41.77 6.35L41.72 6.35L41.72 6.35Q41.75 6.76 41.75 7.17L41.75 7.17L41.75 12.82L41.75 12.82Q41.75 13.33 41.28 13.33L41.28 13.33ZM52.86 13.33L51.78 13.33L51.78 13.33Q51.28 13.33 51.45 12.88L51.45 12.88L54.80 4.08L54.80 4.08Q55.02 3.53 55.45 3.53L55.45 3.53L56.40 3.53L56.40 3.53Q56.83 3.53 57.05 4.08L57.05 4.08L60.40 12.88L60.40 12.88Q60.57 13.33 60.07 13.33L60.07 13.33L58.99 13.33L58.99 13.33Q58.54 13.33 58.36 12.86L58.36 12.86L57.66 11.02L54.19 11.02L53.49 12.86L53.49 12.86Q53.31 13.33 52.86 13.33L52.86 13.33ZM55.67 7.15L54.82 9.32L57.03 9.32L56.18 7.15L56.18 7.15Q56.03 6.77 56.00 6.59L56.00 6.59L56.00 6.59Q55.97 6.42 55.94 6.08L55.94 6.08L55.91 6.08L55.91 6.08Q55.88 6.42 55.85 6.59L55.85 6.59L55.85 6.59Q55.82 6.77 55.67 7.15L55.67 7.15ZM62.76 5.28L60.25 5.28L60.25 5.28Q59.73 5.28 59.73 4.83L59.73 4.83L59.73 3.97L59.73 3.97Q59.73 3.53 60.25 3.53L60.25 3.53L67.27 3.53L67.27 3.53Q67.79 3.53 67.79 3.97L67.79 3.97L67.79 4.83L67.79 4.83Q67.79 5.28 67.27 5.28L67.27 5.28L64.76 5.28L64.76 12.95L64.76 12.95Q64.76 13.33 64.42 13.33L64.42 13.33L63.10 13.33L63.10 13.33Q62.76 13.33 62.76 12.95L62.76 12.95L62.76 5.28ZM70.63 13.33L69.59 13.33L69.59 13.33Q69.11 13.33 69.11 12.82L69.11 12.82L69.11 4.04L69.11 4.04Q69.11 3.53 69.59 3.53L69.59 3.53L70.63 3.53L70.63 3.53Q71.11 3.53 71.11 4.04L71.11 4.04L71.11 12.82L71.11 12.82Q71.11 13.33 70.63 13.33L70.63 13.33ZM72.79 8.43L72.79 8.43L72.79 8.43Q72.79 6.07 73.99 4.68L73.99 4.68L73.99 4.68Q75.18 3.29 77.44 3.29L77.44 3.29L77.44 3.29Q78.74 3.29 79.64 3.70L79.64 3.70L79.64 3.70Q80.54 4.10 80.91 4.87L80.91 4.87L80.91 4.87Q81.16 5.37 80.83 5.55L80.83 5.55L80.01 5.99L80.01 5.99Q79.58 6.22 79.30 5.73L79.30 5.73L79.30 5.73Q79.12 5.41 78.64 5.16L78.64 5.16L78.64 5.16Q78.16 4.91 77.51 4.91L77.51 4.91L77.51 4.91Q76.07 4.91 75.50 5.81L75.50 5.81L75.50 5.81Q74.92 6.72 74.92 8.43L74.92 8.43L74.92 8.43Q74.92 10.14 75.50 11.04L75.50 11.04L75.50 11.04Q76.07 11.95 77.51 11.95L77.51 11.95L77.51 11.95Q78.28 11.95 78.81 11.60L78.81 11.60L78.81 11.60Q79.34 11.25 79.54 10.94L79.54 10.94L79.54 10.94Q79.88 10.42 80.25 10.68L80.25 10.68L81.07 11.22L81.07 11.22Q81.41 11.45 81.14 11.91L81.14 11.91L81.14 11.91Q80.75 12.59 79.78 13.08L79.78 13.08L79.78 13.08Q78.82 13.56 77.44 13.56L77.44 13.56L77.44 13.56Q75.22 13.56 74.00 12.17L74.00 12.17L74.00 12.17Q72.79 10.79 72.79 8.43ZM88.38 13.33L87.29 13.33L87.29 13.33Q86.80 13.33 86.97 12.88L86.97 12.88L90.32 4.08L90.32 4.08Q90.54 3.53 90.97 3.53L90.97 3.53L91.92 3.53L91.92 3.53Q92.35 3.53 92.57 4.08L92.57 4.08L95.92 12.88L95.92 12.88Q96.09 13.33 95.59 13.33L95.59 13.33L94.51 13.33L94.51 13.33Q94.06 13.33 93.88 12.86L93.88 12.86L93.18 11.02L89.71 11.02L89.01 12.86L89.01 12.86Q88.83 13.33 88.38 13.33L88.38 13.33ZM91.18 7.15L90.34 9.32L92.54 9.32L91.70 7.15L91.70 7.15Q91.55 6.77 91.52 6.59L91.52 6.59L91.52 6.59Q91.49 6.42 91.46 6.08L91.46 6.08L91.43 6.08L91.43 6.08Q91.40 6.42 91.37 6.59L91.37 6.59L91.37 6.59Q91.33 6.77 91.18 7.15L91.18 7.15ZM98.82 13.33L97.78 13.33L97.78 13.33Q97.30 13.33 97.30 12.82L97.30 12.82L97.30 4.04L97.30 4.04Q97.30 3.53 97.78 3.53L97.78 3.53L100.95 3.53L100.95 3.53Q103.06 3.53 104.03 4.18L104.03 4.18L104.03 4.18Q105 4.83 105 6.30L105 6.30L105 6.30Q105 7.40 104.21 8.05L104.21 8.05L104.21 8.05Q103.43 8.70 102.22 8.91L102.22 8.91L102.22 8.92L102.22 8.92Q102.87 9.17 103.21 9.60L103.21 9.60L103.21 9.60Q103.54 10.04 103.76 10.37L103.76 10.37L105.26 12.74L105.26 12.74Q105.64 13.33 105 13.33L105 13.33L103.81 13.33L103.81 13.33Q103.43 13.33 103.20 12.93L103.20 12.93L101.81 10.62L101.81 10.62Q101.59 10.25 100.99 9.81L100.99 9.81L100.99 9.81Q100.39 9.37 99.80 9.37L99.80 9.37L99.30 9.37L99.30 12.82L99.30 12.82Q99.30 13.33 98.82 13.33L98.82 13.33ZM99.30 5.20L99.30 7.68L100.52 7.68L100.52 7.68Q101.89 7.68 102.47 7.37L102.47 7.37L102.47 7.37Q103.04 7.05 103.04 6.38L103.04 6.38L103.04 6.38Q103.04 5.64 102.49 5.42L102.49 5.42L102.49 5.42Q101.93 5.20 100.85 5.20L100.85 5.20L99.30 5.20ZM109.23 5.28L106.72 5.28L106.72 5.28Q106.20 5.28 106.20 4.83L106.20 4.83L106.20 3.97L106.20 3.97Q106.20 3.53 106.72 3.53L106.72 3.53L113.74 3.53L113.74 3.53Q114.26 3.53 114.26 3.97L114.26 3.97L114.26 4.83L114.26 4.83Q114.26 5.28 113.74 5.28L113.74 5.28L111.23 5.28L111.23 12.95L111.23 12.95Q111.23 13.33 110.89 13.33L110.89 13.33L109.57 13.33L109.57 13.33Q109.23 13.33 109.23 12.95L109.23 12.95L109.23 5.28ZM117.10 13.33L116.06 13.33L116.06 13.33Q115.58 13.33 115.58 12.82L115.58 12.82L115.58 4.04L115.58 4.04Q115.58 3.53 116.06 3.53L116.06 3.53L117.10 3.53L117.10 3.53Q117.58 3.53 117.58 4.04L117.58 4.04L117.58 12.82L117.58 12.82Q117.58 13.33 117.10 13.33L117.10 13.33ZM119.66 12.60L119.66 12.60L119.66 12.60Q119.24 12.28 119.46 11.95L119.46 11.95L119.98 11.16L119.98 11.16Q120.24 10.77 120.74 11.12L120.74 11.12L120.74 11.12Q121.13 11.38 121.74 11.67L121.74 11.67L121.74 11.67Q122.36 11.95 123.05 11.95L123.05 11.95L123.05 11.95Q123.53 11.95 123.97 11.84L123.97 11.84L123.97 11.84Q124.41 11.73 124.65 11.42L124.65 11.42L124.65 11.42Q124.88 11.10 124.88 10.67L124.88 10.67L124.88 10.67Q124.88 10.36 124.78 10.13L124.78 10.13L124.78 10.13Q124.67 9.90 124.44 9.75L124.44 9.75L124.44 9.75Q124.21 9.60 123.96 9.50L123.96 9.50L123.96 9.50Q123.53 9.32 122.88 9.14L122.88 9.14L122.88 9.14Q122.23 8.97 121.59 8.72L121.59 8.72L121.59 8.72Q121.02 8.50 120.55 8.12L120.55 8.12L120.55 8.12Q120.08 7.74 119.82 7.26L119.82 7.26L119.82 7.26Q119.56 6.78 119.56 5.98L119.56 5.98L119.56 5.98Q119.56 5.03 120.18 4.35L120.18 4.35L120.18 4.35Q120.79 3.68 121.59 3.49L121.59 3.49L121.59 3.49Q122.39 3.29 123.20 3.29L123.20 3.29L123.20 3.29Q124.01 3.29 124.87 3.54L124.87 3.54L124.87 3.54Q125.73 3.79 126.16 4.16L126.16 4.16L126.16 4.16Q126.59 4.52 126.38 4.81L126.38 4.81L125.82 5.56L125.82 5.56Q125.54 5.94 125.07 5.62L125.07 5.62L125.07 5.62Q124.77 5.41 124.25 5.16L124.25 5.16L124.25 5.16Q123.72 4.91 123.16 4.91L123.16 4.91L123.16 4.91Q122.75 4.91 122.41 4.98L122.41 4.98L122.41 4.98Q122.08 5.04 121.82 5.30L121.82 5.30L121.82 5.30Q121.56 5.56 121.56 5.95L121.56 5.95L121.56 5.95Q121.56 6.32 121.75 6.55L121.75 6.55L121.75 6.55Q121.94 6.77 122.17 6.89L122.17 6.89L122.17 6.89Q122.40 7 122.64 7.08L122.64 7.08L122.64 7.08Q123.38 7.31 123.96 7.50L123.96 7.50L123.96 7.50Q124.54 7.68 125.04 7.90L125.04 7.90L125.04 7.90Q125.72 8.20 126.08 8.51L126.08 8.51L126.08 8.51Q126.44 8.82 126.68 9.35L126.68 9.35L126.68 9.35Q126.92 9.88 126.92 10.62L126.92 10.62L126.92 10.62Q126.92 11.72 126.22 12.43L126.22 12.43L126.22 12.43Q125.52 13.15 124.67 13.35L124.67 13.35L124.67 13.35Q123.82 13.56 123.01 13.56L123.01 13.56L123.01 13.56Q121.82 13.56 121.08 13.33L121.08 13.33L121.08 13.33Q120.33 13.10 119.66 12.60ZM129.32 13.33L128.23 13.33L128.23 13.33Q127.74 13.33 127.91 12.88L127.91 12.88L131.26 4.08L131.26 4.08Q131.47 3.53 131.90 3.53L131.90 3.53L132.86 3.53L132.86 3.53Q133.29 3.53 133.50 4.08L133.50 4.08L136.85 12.88L136.85 12.88Q137.02 13.33 136.53 13.33L136.53 13.33L135.44 13.33L135.44 13.33Q134.99 13.33 134.81 12.86L134.81 12.86L134.11 11.02L130.64 11.02L129.94 12.86L129.94 12.86Q129.77 13.33 129.32 13.33L129.32 13.33ZM132.12 7.15L131.28 9.32L133.48 9.32L132.64 7.15L132.64 7.15Q132.49 6.77 132.46 6.59L132.46 6.59L132.46 6.59Q132.43 6.42 132.39 6.08L132.39 6.08L132.36 6.08L132.36 6.08Q132.33 6.42 132.30 6.59L132.30 6.59L132.30 6.59Q132.27 6.77 132.12 7.15L132.12 7.15ZM139.75 13.33L138.71 13.33L138.71 13.33Q138.24 13.33 138.24 12.82L138.24 12.82L138.24 4.04L138.24 4.04Q138.24 3.53 138.71 3.53L138.71 3.53L139.73 3.53L139.73 3.53Q140.31 3.53 140.62 4.01L140.62 4.01L144.10 9.60L144.15 9.60L144.15 9.60Q144.12 9.19 144.12 8.78L144.12 8.78L144.12 4.04L144.12 4.04Q144.12 3.53 144.59 3.53L144.59 3.53L145.63 3.53L145.63 3.53Q146.11 3.53 146.11 4.04L146.11 4.04L146.11 12.82L146.11 12.82Q146.11 13.33 145.63 13.33L145.63 13.33L144.69 13.33L144.69 13.33Q144.10 13.33 143.80 12.85L143.80 12.85L140.25 7.15L140.20 7.15L140.20 7.15Q140.23 7.56 140.23 7.97L140.23 7.97L140.23 12.82L140.23 12.82Q140.23 13.33 139.75 13.33L139.75 13.33ZM148.20 12.60L148.20 12.60L148.20 12.60Q147.77 12.28 147.99 11.95L147.99 11.95L148.52 11.16L148.52 11.16Q148.78 10.77 149.28 11.12L149.28 11.12L149.28 11.12Q149.66 11.38 150.28 11.67L150.28 11.67L150.28 11.67Q150.90 11.95 151.58 11.95L151.58 11.95L151.58 11.95Q152.06 11.95 152.50 11.84L152.50 11.84L152.50 11.84Q152.95 11.73 153.18 11.42L153.18 11.42L153.18 11.42Q153.41 11.10 153.41 10.67L153.41 10.67L153.41 10.67Q153.41 10.36 153.31 10.13L153.31 10.13L153.31 10.13Q153.21 9.90 152.97 9.75L152.97 9.75L152.97 9.75Q152.74 9.60 152.50 9.50L152.50 9.50L152.50 9.50Q152.07 9.32 151.41 9.14L151.41 9.14L151.41 9.14Q150.76 8.97 150.12 8.72L150.12 8.72L150.12 8.72Q149.56 8.50 149.08 8.12L149.08 8.12L149.08 8.12Q148.61 7.74 148.35 7.26L148.35 7.26L148.35 7.26Q148.09 6.78 148.09 5.98L148.09 5.98L148.09 5.98Q148.09 5.03 148.71 4.35L148.71 4.35L148.71 4.35Q149.32 3.68 150.12 3.49L150.12 3.49L150.12 3.49Q150.92 3.29 151.74 3.29L151.74 3.29L151.74 3.29Q152.54 3.29 153.40 3.54L153.40 3.54L153.40 3.54Q154.26 3.79 154.70 4.16L154.70 4.16L154.70 4.16Q155.13 4.52 154.91 4.81L154.91 4.81L154.36 5.56L154.36 5.56Q154.08 5.94 153.60 5.62L153.60 5.62L153.60 5.62Q153.30 5.41 152.78 5.16L152.78 5.16L152.78 5.16Q152.26 4.91 151.69 4.91L151.69 4.91L151.69 4.91Q151.29 4.91 150.95 4.98L150.95 4.98L150.95 4.98Q150.61 5.04 150.35 5.30L150.35 5.30L150.35 5.30Q150.09 5.56 150.09 5.95L150.09 5.95L150.09 5.95Q150.09 6.32 150.28 6.55L150.28 6.55L150.28 6.55Q150.47 6.77 150.71 6.89L150.71 6.89L150.71 6.89Q150.94 7 151.18 7.08L151.18 7.08L151.18 7.08Q151.92 7.31 152.50 7.50L152.50 7.50L152.50 7.50Q153.08 7.68 153.57 7.90L153.57 7.90L153.57 7.90Q154.25 8.20 154.62 8.51L154.62 8.51L154.62 8.51Q154.98 8.82 155.21 9.35L155.21 9.35L155.21 9.35Q155.45 9.88 155.45 10.62L155.45 10.62L155.45 10.62Q155.45 11.72 154.75 12.43L154.75 12.43L154.75 12.43Q154.05 13.15 153.20 13.35L153.20 13.35L153.20 13.35Q152.35 13.56 151.55 13.56L151.55 13.56L151.55 13.56Q150.36 13.56 149.61 13.33L149.61 13.33L149.61 13.33Q148.87 13.10 148.20 12.60Z"></path></g><defs data-v-423bf9ae=""><linearGradient data-v-423bf9ae="" gradientTransform="rotate(25)" id="43d6fc8c-0a94-4ae8-b749-330c77f5cf82" x1="0%" y1="0%" x2="100%" y2="0%"><stop data-v-423bf9ae="" offset="0%" style="stop-color: rgb(30, 11, 54); stop-opacity: 1;"></stop><stop data-v-423bf9ae="" offset="100%" style="stop-color: rgb(202, 55, 130); stop-opacity: 1;"></stop></linearGradient></defs><g data-v-423bf9ae="" id="3b94a53b-f8f5-433b-aeba-2d899772b291" transform="matrix(1,0,0,1,-8.5,-5)" stroke="none" fill="url(#43d6fc8c-0a94-4ae8-b749-330c77f5cf82)"><path d="M25.7 32h32.6c17.2 0 23.2 12.5 23.2 21.5 0 15.3-10.3 22.4-24.8 22.4H45.2V95H25.7V32zm19.5 28.9h7.5c5.1 0 10.4-.4 10.4-6.7 0-5.7-4.4-6.1-9.2-6.1h-8.7v12.8zM91.5 30.5L50 17.8 8.5 30.5V17.6L50 5l41.5 12.6z"></path></g><!----></svg>